<svg width="19" height="18" viewBox="0 0 19 18" fill="none" xmlns="http://www.w3.org/2000/svg">
<g clip-path="url(#clip0_2881_626)">
<path d="M9.37313 18H7.93522C7.22163 18 6.64111 17.4323 6.64111 16.7344V8.01562C6.64111 7.31774 7.22163 6.75 7.93522 6.75H9.37313C10.0867 6.75 10.6672 7.31774 10.6672 8.01562V16.7344C10.6672 17.4323 10.0867 18 9.37313 18Z" fill="#0077B6"/>
<path d="M3.90926 18H2.47136C1.75776 18 1.17725 17.4323 1.17725 16.7344V10.8281C1.17725 10.1302 1.75776 9.5625 2.47136 9.5625H3.90926C4.62286 9.5625 5.20338 10.1302 5.20338 10.8281V16.7344C5.20338 17.4323 4.62282 18 3.90926 18Z" fill="#0077B6"/>
<path d="M14.8378 18H13.3999C12.6863 18 12.1058 17.4323 12.1058 16.7344V5.0625H11.3156C10.9462 5.0625 10.6208 4.85859 10.4665 4.53038C10.3121 4.20216 10.3656 3.82788 10.606 3.55356C10.6087 3.55043 10.6115 3.5473 10.6143 3.54424L13.6905 0.187102C13.7996 0.0680273 13.9553 0 14.1188 0C14.2823 0 14.438 0.0680273 14.5472 0.187102L17.6233 3.54424C17.6262 3.5473 17.6289 3.55043 17.6317 3.55356C17.8721 3.82785 17.9255 4.20216 17.7712 4.53038C17.6168 4.85859 17.2914 5.0625 16.922 5.0625H16.1319V16.7344C16.1319 17.4323 15.5513 18 14.8378 18Z" fill="#0077B6"/>
</g>
<defs>
<clipPath id="clip0_2881_626">
<rect width="18.4051" height="18" fill="white" transform="translate(0.314941)"/>
</clipPath>
</defs>
</svg>
