<svg width="37" height="33" viewBox="0 0 37 33" fill="none" xmlns="http://www.w3.org/2000/svg">
<path d="M13 13V30H32" stroke="white" stroke-miterlimit="10" stroke-linecap="round" stroke-linejoin="round"/>
<path d="M24.8994 23.346L29.1802 19.0692V19.0652" stroke="white" stroke-miterlimit="10" stroke-linecap="round" stroke-linejoin="round"/>
<path d="M30.0362 19.4231C30.7054 19.4231 31.2478 18.8807 31.2478 18.2115C31.2478 17.5424 30.7054 17 30.0362 17C29.3671 17 28.8247 17.5424 28.8247 18.2115C28.8247 18.8807 29.3671 19.4231 30.0362 19.4231Z" stroke="white" stroke-miterlimit="10" stroke-linecap="round" stroke-linejoin="round"/>
<path d="M17.4383 21.5489L13 25.9872M23.0033 23.5641L19.3283 21.3227M19.5076 20.6927C19.5076 21.0239 19.3703 21.3308 19.1522 21.5489C19.0399 21.6616 18.9065 21.751 18.7596 21.812C18.6126 21.873 18.4551 21.9044 18.296 21.9044C18.137 21.9044 17.9794 21.873 17.8325 21.812C17.6856 21.751 17.5522 21.6616 17.4399 21.5489C17.3268 21.4369 17.2372 21.3035 17.1761 21.1565C17.1151 21.0095 17.084 20.8519 17.0845 20.6927C17.0845 20.0224 17.6257 19.4812 18.296 19.4812C18.9624 19.4812 19.5076 20.0224 19.5076 20.6927ZM25.2466 24.1941C25.2466 24.8645 24.7014 25.4056 24.0351 25.4056C23.7967 25.4062 23.5635 25.3364 23.3647 25.2049C23.1659 25.0734 23.0103 24.8861 22.9176 24.6665C22.8248 24.4469 22.799 24.2048 22.8433 23.9706C22.8877 23.7364 23.0002 23.5205 23.1668 23.35C23.2792 23.234 23.4136 23.1416 23.5623 23.0784C23.7109 23.0152 23.8707 22.9825 24.0322 22.9821C24.1937 22.9817 24.3537 23.0137 24.5026 23.0762C24.6516 23.1387 24.7865 23.2305 24.8993 23.346C25.1134 23.5641 25.2466 23.8629 25.2466 24.1941Z" stroke="white" stroke-miterlimit="10" stroke-linecap="round" stroke-linejoin="round"/>
</svg>
